<svg width="468" height="191" viewBox="0 0 468 191" fill="none" xmlns="http://www.w3.org/2000/svg">
<g opacity="0.1" clip-path="url(#clip0_58_244)">
<path d="M353.729 93.7493C351.133 94.8765 348.334 95.458 345.504 95.458C342.674 95.458 339.875 94.8765 337.279 93.7493L237.529 47.5493C235.909 46.7324 234.548 45.4819 233.597 43.937C232.646 42.3921 232.142 40.6135 232.142 38.7993C232.142 36.9851 232.646 35.2066 233.597 33.6617C234.548 32.1169 235.909 30.8664 237.529 30.0493L337.279 -16.5007C339.875 -17.6278 342.674 -18.2094 345.504 -18.2094C348.334 -18.2094 351.133 -17.6278 353.729 -16.5007L453.478 29.6993C455.099 30.5164 456.46 31.7669 457.411 33.3117C458.363 34.8566 458.865 36.6351 458.865 38.4493C458.865 40.2635 458.363 42.0421 457.411 43.587C456.46 45.1319 455.099 46.3824 453.478 47.1993L353.729 93.7493Z" stroke="white" stroke-width="17.5" stroke-linecap="round" stroke-linejoin="round"/>
<path d="M459.249 101.625L352.499 150.8C350.219 151.84 347.742 152.379 345.237 152.379C342.731 152.379 340.254 151.84 337.974 150.8L231.749 101.625" stroke="white" stroke-width="17.5" stroke-linecap="round" stroke-linejoin="round"/>
<path d="M459.249 158.5L352.499 207.675C350.219 208.714 347.742 209.253 345.237 209.253C342.731 209.253 340.254 208.714 337.974 207.675L231.749 158.5" stroke="white" stroke-width="17.5" stroke-linecap="round" stroke-linejoin="round"/>
</g>
<defs>
<clipPath id="clip0_58_244">
<rect width="468" height="191" fill="white"/>
</clipPath>
</defs>
</svg>