<svg width="190" height="51" viewBox="0 0 190 51" fill="none" xmlns="http://www.w3.org/2000/svg">
<rect width="51" height="51" rx="5.10495" fill="white"/>
<path d="M10.6394 9.19906L19.9518 35.6812L29.1672 9.19906H36.2L23.1529 43.6356H16.7022L3.60659 9.19906H10.6394Z" fill="#13ADE7"/>
<path d="M23.2626 9.19906L32.575 35.6812L41.7904 9.19906H48.8232L35.7762 43.6356H29.3254L16.2298 9.19906H23.2626Z" fill="#404040"/>
<path d="M92.27 31.312C92.27 32.6947 91.896 33.8507 91.148 34.78C90.4227 35.6867 89.4367 36.3667 88.19 36.82C86.9433 37.2733 85.572 37.5 84.076 37.5H72.312V13.36H85.742C86.8753 13.36 87.85 13.666 88.666 14.278C89.5047 14.8673 90.1393 15.638 90.57 16.59C91.0233 17.542 91.25 18.528 91.25 19.548C91.25 20.6813 90.9553 21.7693 90.366 22.812C89.7767 23.832 88.9153 24.6027 87.782 25.124C89.1647 25.532 90.2527 26.2573 91.046 27.3C91.862 28.3427 92.27 29.68 92.27 31.312ZM86.592 30.19C86.592 29.6687 86.49 29.2153 86.286 28.83C86.082 28.422 85.81 28.1047 85.47 27.878C85.1527 27.6287 84.7673 27.504 84.314 27.504H77.888V32.774H84.076C84.552 32.774 84.9713 32.6607 85.334 32.434C85.7193 32.2073 86.0253 31.9013 86.252 31.516C86.4787 31.1307 86.592 30.6887 86.592 30.19ZM77.888 18.12V23.118H83.362C83.77 23.118 84.144 23.0273 84.484 22.846C84.8467 22.6647 85.1413 22.3927 85.368 22.03C85.5947 21.6447 85.708 21.1687 85.708 20.602C85.708 20.058 85.606 19.6047 85.402 19.242C85.2207 18.8793 84.9713 18.6073 84.654 18.426C84.3367 18.222 83.974 18.12 83.566 18.12H77.888ZM95.1122 37.5V19.65H100.552V37.5H95.1122ZM95.1122 17.61V12.68H100.552V17.61H95.1122ZM112.674 13.394H117.808L120.324 21.112L122.84 13.394H128.008L123.894 24.614L126.342 31.04L132.394 13.36H138.48L129.062 37.5H124.234L120.324 28.048L116.448 37.5H111.586L102.202 13.36H108.254L114.34 31.04L116.72 24.614L112.674 13.394ZM146.212 37.84C144.693 37.84 143.333 37.5907 142.132 37.092C140.953 36.5933 139.956 35.9133 139.14 35.052C138.324 34.1907 137.7 33.2047 137.27 32.094C136.862 30.9833 136.658 29.816 136.658 28.592C136.658 27.3453 136.862 26.1667 137.27 25.056C137.7 23.9453 138.324 22.9593 139.14 22.098C139.956 21.2367 140.953 20.5567 142.132 20.058C143.333 19.5593 144.693 19.31 146.212 19.31C147.73 19.31 149.079 19.5593 150.258 20.058C151.436 20.5567 152.434 21.2367 153.25 22.098C154.066 22.9593 154.689 23.9453 155.12 25.056C155.55 26.1667 155.766 27.3453 155.766 28.592C155.766 29.816 155.55 30.9833 155.12 32.094C154.689 33.2047 154.066 34.1907 153.25 35.052C152.434 35.9133 151.436 36.5933 150.258 37.092C149.079 37.5907 147.73 37.84 146.212 37.84ZM142.234 28.592C142.234 29.5213 142.404 30.3373 142.744 31.04C143.106 31.7427 143.582 32.2867 144.172 32.672C144.761 33.0573 145.441 33.25 146.212 33.25C146.96 33.25 147.628 33.0573 148.218 32.672C148.83 32.264 149.306 31.7087 149.646 31.006C149.986 30.3033 150.156 29.4987 150.156 28.592C150.156 27.6627 149.986 26.8467 149.646 26.144C149.306 25.4413 148.83 24.8973 148.218 24.512C147.628 24.1267 146.96 23.934 146.212 23.934C145.441 23.934 144.761 24.1267 144.172 24.512C143.582 24.8973 143.106 25.4413 142.744 26.144C142.404 26.8467 142.234 27.6627 142.234 28.592ZM169.786 24.308C168.471 24.308 167.281 24.5233 166.216 24.954C165.15 25.362 164.38 25.974 163.904 26.79V37.5H158.464V19.65H163.462V23.254C164.074 22.0527 164.867 21.112 165.842 20.432C166.816 19.752 167.836 19.4007 168.902 19.378C169.151 19.378 169.332 19.378 169.446 19.378C169.582 19.378 169.695 19.3893 169.786 19.412V24.308ZM184.079 37.5L179.421 30.36L177.517 32.298V37.5H172.077V12.68H177.517V27.028L183.569 19.65H189.315L182.889 27.334L189.859 37.5H184.079Z" fill="#13ADE7"/>
</svg>
