<svg width="28" height="28" viewBox="0 0 28 28" fill="none" xmlns="http://www.w3.org/2000/svg">
<g clip-path="url(#clip0_61_701)">
<path d="M14.9801 2.18008L18.1601 8.60008C18.2324 8.76304 18.3462 8.90418 18.49 9.00946C18.6339 9.11472 18.8029 9.18046 18.9801 9.20008L26 10.2401C26.2034 10.2662 26.395 10.3496 26.5526 10.4806C26.7102 10.6116 26.8274 10.7847 26.8902 10.9797C26.9532 11.1747 26.9592 11.3837 26.9078 11.582C26.8566 11.7804 26.7498 11.9601 26.6 12.1001L21.54 17.1201C21.411 17.2407 21.314 17.3918 21.2582 17.5594C21.2022 17.7271 21.1892 17.9061 21.22 18.0801L22.44 25.14C22.4754 25.343 22.453 25.5516 22.3756 25.7424C22.2982 25.9332 22.1688 26.0984 22.002 26.2194C21.8354 26.3402 21.638 26.4118 21.4326 26.4262C21.2272 26.4404 21.0218 26.3968 20.84 26.3L14.5201 22.96C14.3582 22.8806 14.1803 22.8394 14.0001 22.8394C13.8198 22.8394 13.6419 22.8806 13.4801 22.96L7.16006 26.3C6.97824 26.3968 6.77294 26.4404 6.56752 26.4262C6.3621 26.4118 6.1648 26.3402 5.9981 26.2194C5.83138 26.0984 5.70194 25.9332 5.6245 25.7424C5.54708 25.5516 5.52474 25.343 5.56006 25.14L6.78006 18.0001C6.81098 17.8261 6.7979 17.6471 6.74202 17.4794C6.68614 17.3118 6.5892 17.1607 6.46006 17.0401L1.34007 12.1001C1.18859 11.9563 1.08207 11.7716 1.03339 11.5685C0.984722 11.3654 0.995994 11.1525 1.06584 10.9557C1.13569 10.7588 1.26111 10.5865 1.42693 10.4595C1.59274 10.3325 1.79183 10.2562 2.00006 10.2401L9.02006 9.20008C9.19726 9.18046 9.36622 9.11472 9.5101 9.00946C9.65398 8.90418 9.76774 8.76304 9.84006 8.60008L13.0201 2.18008C13.1067 1.9931 13.2449 1.83479 13.4186 1.72385C13.5922 1.61291 13.794 1.55396 14.0001 1.55396C14.2061 1.55396 14.4079 1.61291 14.5815 1.72385C14.7552 1.83479 14.8935 1.9931 14.9801 2.18008Z" fill="#05AAE6" stroke="#05AAE6" stroke-width="2" stroke-linecap="round" stroke-linejoin="round"/>
</g>
<defs>
<clipPath id="clip0_61_701">
<rect width="28" height="28" fill="white"/>
</clipPath>
</defs>
</svg>
